<?xml version="1.0" encoding="utf-8"?>
<!-- Generator: Adobe Illustrator 23.0.1, SVG Export Plug-In . SVG Version: 6.00 Build 0)  -->
<svg version="1.1" id="Слой_1" xmlns="http://www.w3.org/2000/svg" xmlns:xlink="http://www.w3.org/1999/xlink" x="0px" y="0px"
	 viewBox="0 0 351.8 120.2" style="enable-background:new 0 0 351.8 120.2;" xml:space="preserve">
<style type="text/css">
	.st0{fill:#53787D;}
	.st1{fill:#FFFFFF;}
</style>
<path class="st0" d="M325,73.6l24.3-42.2h-19l-15,26.5l-14.8-26.5h-19.4L305.6,74l-18.8,32.7h-14.5h-40.7V81.1H254V67.8h-22.4V44.6
	h37.9h1.1h9.3l-7.6-13.2h-1.7h-1.1h-55.2h-22v0h-25.8c-7.3,0-13.1,2.1-17.7,6.3c-5,4.4-7.5,10.5-7.5,18.3c0,5,1.6,9.9,4.7,13.9
	c2.8,3.8,6.6,6.8,10.9,8.8l21.1,10.1c3.5,1.4,5.7,4.8,5.5,8.5c0,5.9-4.6,9.4-10.1,9.4h-29v0h-14.6l-23.1-75.2H89.5l-23.6,75.2h-9.9
	H17.5V31.4H0.2v88.8h55.7h5.6h4.4h12.8l5.6-18.9h27.5l5.3,18.9H129v0h15.5h0H177c7.6,0,13.6-2.1,18-6.3c4.7-4.4,7.1-10.8,7.1-18.9
	c0.1-9.2-5-17.6-13.2-21.7l-23.4-11.5c-3.7-1.8-5.6-4.7-5.6-8.3c-0.2-2.6,1-5.2,3.1-6.8c2-1.4,4.4-2.1,6.8-2.1h22.7v0h22v75.6h58v0
	h15.1v0h10.8l16.9-30.2l16.9,30.3h19.5L325,73.6z M88.4,86.9l9.7-33.5l9.4,33.5H88.4z"/>
<g>
	<polygon class="st0" points="190.2,42.2 160.5,38 190.2,33.8 194.9,4.1 199.6,33.6 242.9,38 199.6,42.4 194.9,71.9 	"/>
	<path class="st1" d="M194.9,8.2l4.1,26l37.5,3.8L199,41.8l-4.1,26l-4.2-26.2L165.1,38l25.7-3.7L194.9,8.2 M194.9,0l-1.3,8l-4,25.3
		l-24.8,3.5L156,38l8.9,1.3l24.8,3.5l4,25.3l1.3,8l1.3-8l4-25l36.6-3.7l12.4-1.3l-12.4-1.3L200.2,33l-4-25L194.9,0L194.9,0z"/>
</g>
</svg>
