<svg xmlns="http://www.w3.org/2000/svg" width="10.38mm" height="10.35mm" viewBox="0 0 29.43 29.35">
  <defs>
    <style>
      .cls-1 {
        fill: #fdce76;
      }

      .cls-2 {
        fill: #54787d;
      }
    </style>
  </defs>
  <title>Ресурс 1</title>
  <g id="Слой_2" data-name="Слой 2">
    <g id="_3" data-name="3">
      <path class="cls-1" d="M29,29.19a.25.25,0,0,1-.18-.08L28.69,29a.25.25,0,0,1,.35-.35l.13.13a.24.24,0,0,1,0,.35A.23.23,0,0,1,29,29.19Zm-.84-.84a.25.25,0,0,1-.18-.08l-.71-.7a.25.25,0,0,1,.36-.36l.7.71a.24.24,0,0,1,0,.35A.25.25,0,0,1,28.16,28.35Zm-1.42-1.42a.22.22,0,0,1-.17-.07l-.71-.71a.25.25,0,0,1,.35-.35l.71.71a.25.25,0,0,1-.18.42Zm-1.41-1.41a.25.25,0,0,1-.18-.08l-.71-.7a.25.25,0,0,1,.36-.36l.71.71a.26.26,0,0,1,0,.35A.27.27,0,0,1,25.33,25.52ZM23.91,24.1a.23.23,0,0,1-.17-.07L23,23.32a.25.25,0,1,1,.35-.35l.71.71a.25.25,0,0,1-.18.42ZM22.5,22.69a.26.26,0,0,1-.18-.07l-.7-.71a.25.25,0,0,1,.35-.35l.71.7a.27.27,0,0,1,0,.36A.26.26,0,0,1,22.5,22.69Zm-1.41-1.41a.25.25,0,0,1-.18-.08l-.71-.7a.25.25,0,0,1,.36-.36l.7.71a.24.24,0,0,1,0,.35A.25.25,0,0,1,21.09,21.28Zm-1.42-1.42a.26.26,0,0,1-.18-.07l-.7-.71a.25.25,0,0,1,.35-.35l.71.7a.25.25,0,0,1,0,.36A.24.24,0,0,1,19.67,19.86Zm-1.41-1.41a.25.25,0,0,1-.18-.08l-.71-.7a.25.25,0,0,1,.36-.36l.7.71a.24.24,0,0,1,0,.35A.23.23,0,0,1,18.26,18.45ZM16.84,17a.23.23,0,0,1-.17-.07L16,16.25a.25.25,0,1,1,.35-.35l.71.71a.25.25,0,0,1-.18.42Zm-1.41-1.41a.29.29,0,0,1-.18-.07l-.7-.71a.25.25,0,0,1,0-.36.26.26,0,0,1,.35,0l.71.71a.27.27,0,0,1,0,.36A.31.31,0,0,1,15.43,15.62ZM14,14.2a.24.24,0,0,1-.18-.07l-.71-.71a.25.25,0,0,1,.35-.35l.71.71a.24.24,0,0,1,0,.35A.23.23,0,0,1,14,14.2ZM12.6,12.79a.26.26,0,0,1-.18-.07l-.7-.71a.25.25,0,0,1,.35-.35l.71.7a.25.25,0,0,1,0,.36A.26.26,0,0,1,12.6,12.79Zm-1.41-1.41A.25.25,0,0,1,11,11.3l-.71-.7a.27.27,0,0,1,0-.36.25.25,0,0,1,.36,0l.7.71a.24.24,0,0,1,0,.35A.25.25,0,0,1,11.19,11.38ZM9.77,10a.22.22,0,0,1-.17-.07l-.71-.71a.25.25,0,0,1,.35-.35l.71.7a.25.25,0,0,1,0,.36A.24.24,0,0,1,9.77,10ZM8.36,8.55a.25.25,0,0,1-.18-.08l-.71-.7a.25.25,0,0,1,.36-.36l.7.71a.24.24,0,0,1,0,.35A.23.23,0,0,1,8.36,8.55ZM6.94,7.13a.23.23,0,0,1-.17-.07l-.71-.71A.25.25,0,1,1,6.41,6l.71.71a.25.25,0,0,1-.18.42ZM5.53,5.72a.31.31,0,0,1-.18-.07l-.7-.71a.25.25,0,0,1,0-.36.26.26,0,0,1,.35,0l.71.71a.27.27,0,0,1,0,.36A.31.31,0,0,1,5.53,5.72ZM4.12,4.3a.24.24,0,0,1-.18-.07l-.71-.71a.24.24,0,0,1,0-.35.25.25,0,0,1,.36,0l.7.71a.24.24,0,0,1,0,.35A.23.23,0,0,1,4.12,4.3ZM2.7,2.89a.26.26,0,0,1-.18-.07l-.7-.71a.25.25,0,0,1,.35-.35l.71.7a.25.25,0,0,1,0,.36A.24.24,0,0,1,2.7,2.89ZM1.29,1.48a.25.25,0,0,1-.18-.08L.4.7A.27.27,0,0,1,.4.34a.25.25,0,0,1,.36,0l.7.71a.24.24,0,0,1,0,.35A.23.23,0,0,1,1.29,1.48Z"/>
      <path class="cls-1" d="M28.93,14.92H28.5a.25.25,0,0,1-.25-.25.25.25,0,0,1,.25-.25h.43a.25.25,0,0,1,.25.25A.25.25,0,0,1,28.93,14.92Zm-1.43,0h-1a.25.25,0,0,1-.25-.25.25.25,0,0,1,.25-.25h1a.25.25,0,0,1,.25.25A.25.25,0,0,1,27.5,14.92Zm-2,0h-1a.25.25,0,0,1-.25-.25.25.25,0,0,1,.25-.25h1a.25.25,0,0,1,.25.25A.25.25,0,0,1,25.5,14.92Zm-2,0h-1a.25.25,0,0,1-.25-.25.25.25,0,0,1,.25-.25h1a.25.25,0,0,1,.25.25A.25.25,0,0,1,23.5,14.92Zm-2,0h-1a.25.25,0,0,1-.25-.25.25.25,0,0,1,.25-.25h1a.25.25,0,0,1,.25.25A.25.25,0,0,1,21.5,14.92Zm-2,0h-1a.25.25,0,0,1-.25-.25.25.25,0,0,1,.25-.25h1a.25.25,0,0,1,.25.25A.25.25,0,0,1,19.5,14.92Zm-2,0h-1a.25.25,0,0,1-.25-.25.25.25,0,0,1,.25-.25h1a.25.25,0,0,1,.25.25A.25.25,0,0,1,17.5,14.92Zm-2,0h-1a.25.25,0,0,1-.25-.25.25.25,0,0,1,.25-.25h1a.25.25,0,0,1,.25.25A.25.25,0,0,1,15.5,14.92Zm-2,0h-1a.25.25,0,0,1-.25-.25.25.25,0,0,1,.25-.25h1a.25.25,0,0,1,.25.25A.25.25,0,0,1,13.5,14.92Zm-2,0h-1a.25.25,0,0,1-.25-.25.25.25,0,0,1,.25-.25h1a.25.25,0,0,1,.25.25A.25.25,0,0,1,11.5,14.92Zm-2,0h-1a.25.25,0,0,1-.25-.25.25.25,0,0,1,.25-.25h1a.25.25,0,0,1,.25.25A.25.25,0,0,1,9.5,14.92Zm-2,0h-1a.25.25,0,0,1-.25-.25.25.25,0,0,1,.25-.25h1a.25.25,0,0,1,.25.25A.25.25,0,0,1,7.5,14.92Zm-2,0h-1a.25.25,0,0,1-.25-.25.25.25,0,0,1,.25-.25h1a.25.25,0,0,1,.25.25A.25.25,0,0,1,5.5,14.92Zm-2,0h-1a.25.25,0,0,1-.25-.25.25.25,0,0,1,.25-.25h1a.25.25,0,0,1,.25.25A.25.25,0,0,1,3.5,14.92Zm-2,0H.5a.25.25,0,0,1-.25-.25.25.25,0,0,1,.25-.25h1a.25.25,0,0,1,.25.25A.25.25,0,0,1,1.5,14.92Z"/>
      <path class="cls-1" d="M.58,29.12A.27.27,0,0,1,.4,29a.26.26,0,0,1,0-.35L1.11,28a.25.25,0,0,1,.35.35L.76,29A.27.27,0,0,1,.58,29.12ZM2,27.7a.23.23,0,0,1-.17-.07.25.25,0,0,1,0-.36l.7-.7a.25.25,0,0,1,.36,0,.24.24,0,0,1,0,.35l-.71.71A.24.24,0,0,1,2,27.7Zm1.42-1.41a.25.25,0,0,1-.18-.08.24.24,0,0,1,0-.35l.71-.71a.26.26,0,0,1,.35,0,.25.25,0,0,1,0,.36l-.7.7A.27.27,0,0,1,3.41,26.29Zm1.41-1.42a.22.22,0,0,1-.17-.07.24.24,0,0,1,0-.35l.7-.71a.25.25,0,0,1,.36,0,.26.26,0,0,1,0,.35L5,24.8A.24.24,0,0,1,4.82,24.87Zm1.42-1.41a.29.29,0,0,1-.18-.07.25.25,0,0,1,0-.36l.71-.71a.26.26,0,0,1,.35,0,.25.25,0,0,1,0,.36l-.71.71A.28.28,0,0,1,6.24,23.46ZM7.65,22A.26.26,0,0,1,7.47,22a.26.26,0,0,1,0-.35l.71-.71a.25.25,0,0,1,.36,0,.26.26,0,0,1,0,.35L7.83,22A.24.24,0,0,1,7.65,22Zm1.42-1.41a.24.24,0,0,1-.18-.07.25.25,0,0,1,0-.36l.71-.7a.25.25,0,0,1,.35.35l-.71.71A.23.23,0,0,1,9.07,20.63Zm1.41-1.41a.27.27,0,0,1-.18-.08.26.26,0,0,1,0-.35l.71-.71a.24.24,0,0,1,.35,0,.25.25,0,0,1,0,.36l-.7.7A.27.27,0,0,1,10.48,19.22Zm1.41-1.42a.23.23,0,0,1-.17-.07.24.24,0,0,1,0-.35l.7-.71a.25.25,0,0,1,.36,0,.24.24,0,0,1,0,.35l-.71.71A.24.24,0,0,1,11.89,17.8Zm1.42-1.41a.25.25,0,0,1-.18-.08.24.24,0,0,1,0-.35l.71-.71a.26.26,0,0,1,.35,0,.25.25,0,0,1,0,.36l-.71.7A.23.23,0,0,1,13.31,16.39ZM14.72,15a.22.22,0,0,1-.17-.07.24.24,0,0,1,0-.35l.7-.71a.25.25,0,0,1,.36,0,.26.26,0,0,1,0,.35l-.71.71A.24.24,0,0,1,14.72,15Zm1.42-1.41a.29.29,0,0,1-.18-.07.25.25,0,0,1,0-.36l.71-.7a.25.25,0,0,1,.35.35l-.71.71A.28.28,0,0,1,16.14,13.56Zm1.41-1.41a.27.27,0,0,1-.18-.08.26.26,0,0,1,0-.35l.71-.71a.25.25,0,0,1,.36,0,.26.26,0,0,1,0,.35l-.71.71A.25.25,0,0,1,17.55,12.15ZM19,10.73a.24.24,0,0,1-.18-.07.25.25,0,0,1,0-.36l.71-.7a.25.25,0,1,1,.35.35l-.71.71A.23.23,0,0,1,19,10.73Zm1.41-1.41a.25.25,0,0,1-.18-.08.24.24,0,0,1,0-.35l.71-.71a.24.24,0,0,1,.35,0,.25.25,0,0,1,0,.36l-.7.7A.27.27,0,0,1,20.38,9.32ZM21.79,7.9a.23.23,0,0,1-.17-.07.24.24,0,0,1,0-.35l.7-.71a.25.25,0,0,1,.36,0,.26.26,0,0,1,0,.35L22,7.83A.24.24,0,0,1,21.79,7.9Zm1.42-1.41A.25.25,0,0,1,23,6.41a.24.24,0,0,1,0-.35l.71-.71a.26.26,0,0,1,.35,0,.25.25,0,0,1,0,.36l-.71.7A.23.23,0,0,1,23.21,6.49Zm1.41-1.42A.26.26,0,0,1,24.44,5a.26.26,0,0,1,0-.35l.71-.71a.25.25,0,0,1,.36,0,.26.26,0,0,1,0,.35L24.8,5A.24.24,0,0,1,24.62,5.07ZM26,3.66a.24.24,0,0,1-.18-.07.25.25,0,0,1,0-.36l.71-.7a.25.25,0,0,1,.35.35l-.71.71A.23.23,0,0,1,26,3.66Zm1.41-1.41a.27.27,0,0,1-.18-.08.26.26,0,0,1,0-.35L28,1.11a.25.25,0,1,1,.35.35l-.7.71A.25.25,0,0,1,27.45,2.25Z"/>
      <rect class="cls-2" x="22.95" y="5.99" width="1" height="17.45"/>
      <path class="cls-2" d="M14.5,15.17h-7a.5.5,0,0,1-.5-.5.5.5,0,0,1,.5-.5h7a.51.51,0,0,1,.5.5A.5.5,0,0,1,14.5,15.17Z"/>
      <path class="cls-2" d="M20.12,29.35H7.43a.5.5,0,0,1-.5-.5V.5a.5.5,0,0,1,.5-.5H20.12a.48.48,0,0,1,.45.29.49.49,0,0,1-.07.54c-11.74,13.69-.12,27.55,0,27.69a.49.49,0,0,1,.07.54A.5.5,0,0,1,20.12,29.35Zm-12.19-1H19.11C16.8,25.14,9.47,13.11,19.06,1H7.93Z"/>
      <path class="cls-2" d="M.5,29.35a.5.5,0,0,1-.5-.5V.5A.5.5,0,0,1,.5,0,.5.5,0,0,1,1,.5V28.85A.5.5,0,0,1,.5,29.35Z"/>
      <path class="cls-2" d="M28.93,29.35a.5.5,0,0,1-.5-.5V.5a.5.5,0,0,1,1,0V28.85A.5.5,0,0,1,28.93,29.35Z"/>
      <path class="cls-2" d="M18.66,19.07a.51.51,0,0,1-.5-.5V10.78a.51.51,0,0,1,.5-.5.5.5,0,0,1,.5.5v7.79A.5.5,0,0,1,18.66,19.07Z"/>
      <path class="cls-2" d="M18.66,11.28a.47.47,0,0,1-.35-.14.5.5,0,0,1,0-.71l2.58-2.58a.5.5,0,0,1,.71.71L19,11.14A.5.5,0,0,1,18.66,11.28Z"/>
      <path class="cls-2" d="M21,15.17H18.66a.5.5,0,0,1-.5-.5.51.51,0,0,1,.5-.5H21a.5.5,0,0,1,.5.5A.5.5,0,0,1,21,15.17Z"/>
      <path class="cls-2" d="M23.45,6.49a.54.54,0,0,1-.35-.14.5.5,0,0,1,0-.71L26,2.7a.5.5,0,0,1,.7,0,.5.5,0,0,1,0,.71L23.81,6.35A.54.54,0,0,1,23.45,6.49Z"/>
      <path class="cls-2" d="M26.39,26.84a.47.47,0,0,1-.35-.15L23.1,23.75a.48.48,0,0,1,0-.7.5.5,0,0,1,.71,0L26.74,26a.5.5,0,0,1,0,.71A.47.47,0,0,1,26.39,26.84Z"/>
      <path class="cls-2" d="M26,15.17H23.45a.5.5,0,0,1-.5-.5.51.51,0,0,1,.5-.5H26a.51.51,0,0,1,.5.5A.5.5,0,0,1,26,15.17Z"/>
    </g>
  </g>
</svg>
