<svg id="Слой_1" data-name="Слой 1" xmlns="http://www.w3.org/2000/svg" width="6.39cm" height="4.1cm" viewBox="0 0 181 116.3">
  <defs>
    <style>
      .cls-1 {
        fill: #54787d;
      }
    </style>
  </defs>
  <title>logo-polus</title>
  <g>
    <path class="cls-1" d="M36,89.76v25.91H32.11V91.06H13.86v24.61H10V89.76Z"/>
    <path class="cls-1" d="M68.05,93.1a12.07,12.07,0,0,1,0,19.24,17.48,17.48,0,0,1-11.54,4,17.68,17.68,0,0,1-11.62-4,12.07,12.07,0,0,1,0-19.24,17.52,17.52,0,0,1,11.62-4A17.4,17.4,0,0,1,68.05,93.1ZM47.81,111.4a12.22,12.22,0,0,0,17.32,0,12.24,12.24,0,0,0,0-17.38,11.64,11.64,0,0,0-8.62-3.63,12.3,12.3,0,0,0-8.7,21Z"/>
    <polygon class="cls-1" points="98.97 115.67 87.89 89.8 87.92 89.72 85.9 89.72 75.06 115.67 77.08 115.67 85.79 94.83 95.03 115.67 98.97 115.67"/>
    <path class="cls-1" d="M139.16,93.1a17.44,17.44,0,0,0-11.55-4,17.93,17.93,0,0,0-9.87,2.77,13.19,13.19,0,0,0-5.77,7l-.41,1.3a12.63,12.63,0,0,0-.28,1.87h-3.37V89.76h-3.86v25.91h3.86V103.35h3.33a11.79,11.79,0,0,0,3.73,8,17.12,17.12,0,0,0,12.64,4.93,17.53,17.53,0,0,0,11.55-4,12,12,0,0,0,0-19.24Zm-2.9,18.3a11.79,11.79,0,0,1-8.65,3.6,11.53,11.53,0,0,1-9.12-3.81,12.41,12.41,0,0,1-3.06-8.48,12.22,12.22,0,0,1,3.06-8.47,11.49,11.49,0,0,1,9.12-3.85,12.3,12.3,0,0,1,8.65,21Z"/>
    <path class="cls-1" d="M167.07,113.9a11.63,11.63,0,0,0,1.42-1,3.13,3.13,0,0,1,.57-.43l.21-.22.16-.16,2,1.34a15.35,15.35,0,0,1-8.64,2.85q-7.65,0-12.13-4.23a12.77,12.77,0,0,1,0-18.71q4.5-4.27,12.13-4.25A15.3,15.3,0,0,1,171.47,92l-2,1.34-.53-.45-.62-.51a9.72,9.72,0,0,0-1.42-.92,8.49,8.49,0,0,0-4-1,11.63,11.63,0,0,0-9.13,3.85,12.36,12.36,0,0,0-3,8.47,12.56,12.56,0,0,0,3,8.48,11.66,11.66,0,0,0,9.13,3.81A8.65,8.65,0,0,0,167.07,113.9Z"/>
  </g>
  <rect class="cls-1" y="77.86" width="181" height="3"/>
  <g>
    <g>
      <circle class="cls-1" cx="152.13" cy="41.15" r="7.07"/>
      <g>
        <g>
          <path class="cls-1" d="M152.13,36.35a1,1,0,0,1-1-1V13.25a1,1,0,1,1,2,0V35.36A1,1,0,0,1,152.13,36.35Z"/>
          <path class="cls-1" d="M149.78,37.26a1,1,0,0,1-1.35-.36L137.37,17.75a1,1,0,0,1,.37-1.36,1,1,0,0,1,1.35.37L150.15,35.9A1,1,0,0,1,149.78,37.26Z"/>
          <path class="cls-1" d="M148.12,38.78a1,1,0,0,1-1.36.36l-19.14-11a1,1,0,0,1-.37-1.36,1,1,0,0,1,1.36-.36l19.15,11.05A1,1,0,0,1,148.12,38.78Z"/>
          <path class="cls-1" d="M156.28,38.7a1,1,0,0,1,.37-1.36L175.8,26.28a1,1,0,1,1,1,1.73L157.64,39.06A1,1,0,0,1,156.28,38.7Z"/>
          <path class="cls-1" d="M154.54,37.26a1,1,0,0,1-.36-1.36l11-19.14a1,1,0,0,1,1.73,1L155.9,36.9A1,1,0,0,1,154.54,37.26Z"/>
          <path class="cls-1" d="M147.36,37.48a1,1,0,0,1-.71-.29L140.45,31a1,1,0,1,1,1.41-1.41l6.21,6.2a1,1,0,0,1,0,1.42A1,1,0,0,1,147.36,37.48Z"/>
          <path class="cls-1" d="M146.11,40.27a1,1,0,0,1-.75.1l-8.48-2.27a1,1,0,0,1-.71-1.23,1,1,0,0,1,1.22-.7l8.48,2.27a1,1,0,0,1,.71,1.22A1,1,0,0,1,146.11,40.27Z"/>
          <path class="cls-1" d="M158.24,40.38a1,1,0,0,0,.76.1l8.47-2.28a1,1,0,0,0-.51-1.93l-8.48,2.27a1,1,0,0,0-.24,1.84Z"/>
          <path class="cls-1" d="M156.87,37.48a1,1,0,0,0,.7-.29L163.78,31a1,1,0,0,0-1.41-1.41l-6.21,6.2a1,1,0,0,0,.71,1.71Z"/>
          <path class="cls-1" d="M155.62,25.38a1,1,0,0,0-.47.61l-2.27,8.48a1,1,0,0,0,1.93.51l2.27-8.48a1,1,0,0,0-1.46-1.12Z"/>
          <path class="cls-1" d="M148.65,25.38a1,1,0,0,1,.47.61l2.27,8.48a1,1,0,0,1-.7,1.22,1,1,0,0,1-1.23-.71l-2.27-8.48a1,1,0,0,1,.71-1.22A1,1,0,0,1,148.65,25.38Z"/>
        </g>
        <g>
          <path class="cls-1" d="M152.13,46a1,1,0,0,0-1,1V69.14a1,1,0,0,0,2,0V47A1,1,0,0,0,152.13,46Z"/>
          <path class="cls-1" d="M149.78,45.12a1,1,0,0,0-1.36.37l-11,19.15a1,1,0,1,0,1.72,1l11.06-19.15A1,1,0,0,0,149.78,45.12Z"/>
          <path class="cls-1" d="M148.12,43.61a1,1,0,0,0-1.36-.37L127.62,54.3a1,1,0,1,0,1,1.72L147.76,45A1,1,0,0,0,148.12,43.61Z"/>
          <path class="cls-1" d="M156.28,43.69a1,1,0,0,0,.37,1.36L175.79,56.1a1,1,0,0,0,1-1.72L157.64,43.33A1,1,0,0,0,156.28,43.69Z"/>
          <path class="cls-1" d="M154.54,45.12a1,1,0,0,0-.36,1.36l11,19.15a1,1,0,1,0,1.73-1L155.9,45.49A1,1,0,0,0,154.54,45.12Z"/>
          <path class="cls-1" d="M147.36,44.91a1,1,0,0,0-.71.29l-6.2,6.21a1,1,0,0,0,0,1.41,1,1,0,0,0,1.41,0l6.21-6.21a1,1,0,0,0,0-1.41A1,1,0,0,0,147.36,44.91Z"/>
          <path class="cls-1" d="M146.11,42a1,1,0,0,0-.76-.1l-8.47,2.28a1,1,0,1,0,.51,1.93l8.48-2.27a1,1,0,0,0,.24-1.84Z"/>
          <path class="cls-1" d="M158.24,42a1,1,0,0,1,.75-.1l8.48,2.27a1,1,0,0,1,.71,1.23,1,1,0,0,1-1.22.7l-8.48-2.27a1,1,0,0,1-.71-1.22A1,1,0,0,1,158.24,42Z"/>
          <path class="cls-1" d="M156.87,44.91a1,1,0,0,1,.7.29l6.21,6.21a1,1,0,0,1-1.41,1.41l-6.21-6.21a1,1,0,0,1,0-1.41A1,1,0,0,1,156.87,44.91Z"/>
          <path class="cls-1" d="M155.62,57a1,1,0,0,1-.47-.61l-2.27-8.48a1,1,0,0,1,1.93-.52l2.27,8.48a1,1,0,0,1-.7,1.23A1,1,0,0,1,155.62,57Z"/>
          <path class="cls-1" d="M148.65,57a1,1,0,0,0,.47-.61l2.27-8.48a1,1,0,0,0-1.93-.52l-2.27,8.48a1,1,0,0,0,.7,1.23A1,1,0,0,0,148.65,57Z"/>
        </g>
      </g>
    </g>
    <polygon class="cls-1" points="181 38.78 181 43.52 59.56 41.15 181 38.78"/>
    <polygon class="cls-1" points="114.99 0 83.88 49.79 119.48 0 114.99 0"/>
  </g>
  <polygon class="cls-1" points="50.77 8.75 50.09 8.75 0 8.75 0 12.71 47.92 12.71 46.2 15.85 68.45 15.85 67.36 17.87 45.08 17.87 45.08 17.89 0 17.89 0 21.84 42.9 21.84 41.82 23.81 64.15 23.81 63.06 25.84 40.71 25.84 40.7 25.85 0 25.85 0 29.81 38.52 29.81 37.37 31.92 59.77 31.92 58.68 33.95 36.25 33.95 36.25 33.95 0 33.95 0 37.91 34.08 37.91 32.46 40.85 54.95 40.85 53.86 42.88 31.35 42.88 31.34 42.89 0 42.89 0 46.85 29.16 46.85 28.05 48.88 50.62 48.88 49.53 50.91 2.69 50.91 2.69 50.9 0 50.9 0 54.86 24.77 54.86 23.67 56.86 45.97 56.86 45.97 57.49 45.22 58.89 22.55 58.89 22.54 58.91 0 58.91 0 62.87 20.37 62.87 19.18 65.03 41.91 65.03 40.81 67.05 18.07 67.05 18.07 67.05 0 67.05 0 71.01 15.89 71.01 38.19 71.01 38.67 71.01 39.19 71.01 105.89 71.01 106.99 71.01 73.39 8.75 50.77 8.75"/>
</svg>
