<svg xmlns="http://www.w3.org/2000/svg" width="77.84" height="109.38" viewBox="0 0 77.84 109.38">
  <defs>
    <style>
      .cls-1 {
        fill: #54787d;
      }
    </style>
  </defs>
  <title>number-3</title>
  <g id="Слой_2" data-name="Слой 2">
    <path class="cls-1" d="M77.84,74.74c0,20.31-15.19,34.64-39.6,34.64-17.07,0-28.95-5-38.24-11.31L9.87,80c8.64,5.33,17.85,9.07,27.14,9.07,10.23,0,19.66-3.89,19.66-14.26,0-11.37-10.66-16.27-22.39-16.63L67,14.26V6.05H14.76v8.21H56L28.73,51.2l-3.24-5.84L44,20.31H8.71V0H73.09V16.27L45.15,53.72c10.94,3.16,17.57,10.8,17.57,21.09C62.72,87.13,53,95.12,37,95.12c-8,0-16.13-2.23-24.77-6.84L8.06,95.91c8.93,5,18.65,7.42,30.18,7.42,17.93,0,33.55-9.15,33.55-28.59,0-12.89-7.2-20.16-13.46-24L62,45.87A33,33,0,0,1,77.84,74.74Z"/>
  </g>
</svg>
