<svg xmlns="http://www.w3.org/2000/svg" width="67.69" height="109.45" viewBox="0 0 67.69 109.45">
  <defs>
    <style>
      .cls-1 {
        fill: #6fb991;
      }
    </style>
  </defs>
  <title>number-2</title>
  <g id="Слой_2" data-name="Слой 2">
    <path class="cls-1" d="M67.69,89.14v20.31H1.08l44.21-46.3c9.8-10.23,14.48-20.09,14.48-29.45,0-18.65-15.27-27.65-28.09-27.65-9.79,0-17.42,3-23.18,9.07l6.33,5.19a23,23,0,0,1,16.13-6c9.8,0,16.93,5.25,19.09,14.18a24.83,24.83,0,0,1,.64,6.05c0,9.36-6.77,16.92-12.31,22.83L1.08,96.63V87.85L32.91,54.29c5.25-5.54,11.73-12.17,11.73-19.8a21.57,21.57,0,0,0-.5-4.68c-1.58-6.55-6.77-9.5-13.18-9.5-7.2,0-12.09,3.24-15.26,8.49L0,16C7.71,4.68,18.94,0,31.68,0,48.1,0,65.81,11.81,65.81,33.7c0,11.3-5.47,22.46-16.05,33.55L15.19,103.4H61.64V95.19H35.43l5.76-6Z"/>
  </g>
</svg>
