<svg id="Слой_1" data-name="Слой 1" xmlns="http://www.w3.org/2000/svg" width="3.42cm" height="0.8cm" viewBox="0 0 96.82 22.72">
  <defs>
    <style>
      .cls-1, .cls-2, .cls-3 {
        fill: none;
        stroke-miterlimit: 10;
      }

      .cls-1 {
        stroke: #fdce76;
      }

      .cls-2 {
        stroke: #6fb991;
      }

      .cls-3 {
        stroke: #54787d;
      }
    </style>
  </defs>
  <title>numbers</title>
  <g>
    <path class="cls-1" d="M25.8,27.71v21H20.94V31.61h-4.2v-3.9Z" transform="translate(-16.24 -26.85)"/>
    <path class="cls-1" d="M29.31,46a2.91,2.91,0,0,1,5.82,0,2.91,2.91,0,1,1-5.82,0Z" transform="translate(-16.24 -26.85)"/>
  </g>
  <g>
    <path class="cls-2" d="M66.89,44.75v4H51V45.56l8.1-7.65C61,36.14,61.31,35.06,61.31,34c0-1.65-1.14-2.61-3.36-2.61a5.13,5.13,0,0,0-4.35,2.1l-3.54-2.28c1.62-2.37,4.56-3.9,8.34-3.9,4.68,0,7.8,2.4,7.8,6.21,0,2-.57,3.9-3.51,6.63l-4.83,4.56Z" transform="translate(-16.24 -26.85)"/>
    <path class="cls-2" d="M69.05,46a2.91,2.91,0,0,1,5.82,0,2.91,2.91,0,1,1-5.82,0Z" transform="translate(-16.24 -26.85)"/>
  </g>
  <g>
    <path class="cls-3" d="M104.64,42.29c0,3.54-2.73,6.78-8.7,6.78a14.44,14.44,0,0,1-8-2.25l1.89-3.72a10.2,10.2,0,0,0,6,1.89c2.43,0,3.93-1,3.93-2.7s-1.17-2.58-3.93-2.58H93.6V36.5l4.32-4.89H89v-3.9h14.7v3.15l-4.74,5.4C102.72,36.86,104.64,39.2,104.64,42.29Z" transform="translate(-16.24 -26.85)"/>
    <path class="cls-3" d="M106.74,46a2.91,2.91,0,0,1,5.82,0,2.91,2.91,0,1,1-5.82,0Z" transform="translate(-16.24 -26.85)"/>
  </g>
</svg>
