<svg xmlns="http://www.w3.org/2000/svg" width="187.63" height="44.41" viewBox="0 0 187.63 44.41">
  <defs>
    <style>
      .cls-1 {
        fill: #fcf9f3;
      }

      .cls-2 {
        fill: #fdce77;
      }
    </style>
  </defs>
  <title>numbers-sprite</title>
  <g id="Слой_2" data-name="Слой 2">
    <g>
      <circle class="cls-1" cx="22.13" cy="22.13" r="20.96"/>
      <path class="cls-2" d="M22.13,44.26A22.13,22.13,0,1,1,44.26,22.13,22.15,22.15,0,0,1,22.13,44.26Zm0-41.91A19.78,19.78,0,1,0,41.91,22.13,19.81,19.81,0,0,0,22.13,2.35Z"/>
    </g>
    <path class="cls-2" d="M17.23,17.82a.66.66,0,0,1-.14-.41.92.92,0,0,1,.38-.66l2.86-2.46a2.62,2.62,0,0,1,1.73-.56h1.72a1.1,1.1,0,0,1,.81.33,1.07,1.07,0,0,1,.33.78V29.43a1,1,0,0,1-.34.78,1.12,1.12,0,0,1-.8.32H21.6a1.06,1.06,0,0,1-.78-.31,1,1,0,0,1-.32-.76V18.12l-1.35,1a.68.68,0,0,1-.54.1.75.75,0,0,1-.49-.27Z"/>
  </g>
  <g id="Слой_3" data-name="Слой 3">
    <g>
      <circle class="cls-1" cx="70.28" cy="22.13" r="20.96"/>
      <path class="cls-2" d="M70.28,44.26A22.13,22.13,0,1,1,92.42,22.13,22.15,22.15,0,0,1,70.28,44.26Zm0-41.91A19.78,19.78,0,1,0,90.07,22.13,19.81,19.81,0,0,0,70.28,2.35Z"/>
    </g>
    <path class="cls-2" d="M62.35,28.68V27A5.18,5.18,0,0,1,63,24.39a4.92,4.92,0,0,1,1.58-1.71,11.14,11.14,0,0,1,2.13-1.06A23.59,23.59,0,0,1,69,20.86l2.14-.56a4.45,4.45,0,0,0,1.58-.71,1.33,1.33,0,0,0,.61-1.11,2.05,2.05,0,0,0-.68-1.8,4.12,4.12,0,0,0-2.3-.48h-.83c-1.51,0-2.5.48-3,1.44A1.69,1.69,0,0,1,65,18.75H63.58a1.29,1.29,0,0,1-.45-.09,1.12,1.12,0,0,1-.5-.41,1.27,1.27,0,0,1-.26-.81,3.38,3.38,0,0,1,1-2.41,6.34,6.34,0,0,1,2.54-1.6,9.48,9.48,0,0,1,3.18-.54H70.7a12.79,12.79,0,0,1,2.77.26,7,7,0,0,1,2.21.87,3.94,3.94,0,0,1,1.54,1.73,6.27,6.27,0,0,1,.54,2.73,4.69,4.69,0,0,1-.61,2.39,4.9,4.9,0,0,1-1.58,1.65,10.92,10.92,0,0,1-2.14,1.05,22.59,22.59,0,0,1-2.34.75L69,24.87a5.64,5.64,0,0,0-1.59.65,1.14,1.14,0,0,0-.61.95h9.73a1.13,1.13,0,0,1,1.13,1.11v1.1a1,1,0,0,1-.34.78,1.06,1.06,0,0,1-.79.32h-13a1.08,1.08,0,0,1-.79-.32A1,1,0,0,1,62.35,28.68Z"/>
  </g>
  <g id="Слой_4" data-name="Слой 4">
    <g>
      <circle class="cls-1" cx="118.44" cy="22.13" r="20.96"/>
      <path class="cls-2" d="M118.44,44.26a22.13,22.13,0,1,1,22.13-22.13A22.15,22.15,0,0,1,118.44,44.26Zm0-41.91a19.78,19.78,0,1,0,19.78,19.78A19.8,19.8,0,0,0,118.44,2.35Z"/>
    </g>
    <path class="cls-2" d="M110.12,25.94a1.16,1.16,0,0,1,.42-1,1.46,1.46,0,0,1,.83-.3h1.42a1.93,1.93,0,0,1,1.75,1.3c.43.91,1.39,1.36,2.88,1.36h1.67a4.22,4.22,0,0,0,2.11-.41,1.5,1.5,0,0,0,.66-1.39,1.52,1.52,0,0,0-.66-1.39,4.22,4.22,0,0,0-2.11-.41H117a1.06,1.06,0,0,1-.79-.32,1,1,0,0,1-.33-.78v-1a1.11,1.11,0,0,1,.32-.77,1,1,0,0,1,.75-.33h1.72a4.77,4.77,0,0,0,2.27-.41,1.48,1.48,0,0,0,.71-1.39,1.47,1.47,0,0,0-.71-1.39,4.77,4.77,0,0,0-2.27-.41h-.87c-1.5,0-2.5.48-3,1.44a1.69,1.69,0,0,1-1.58,1.11h-1.4a1.29,1.29,0,0,1-.45-.09,1.1,1.1,0,0,1-.49-.41,1.28,1.28,0,0,1-.25-.81,3.41,3.41,0,0,1,1-2.41,6.33,6.33,0,0,1,2.54-1.61,9.63,9.63,0,0,1,3.17-.53H119q7,0,7.06,5.13a4,4,0,0,1-1.61,3.36,3.73,3.73,0,0,1,1.84,3.39,4.42,4.42,0,0,1-1.74,3.91,9,9,0,0,1-5.1,1.2h-2.52a8.69,8.69,0,0,1-4.71-1.3A3.87,3.87,0,0,1,110.12,25.94Z"/>
  </g>
  <g id="Слой_5" data-name="Слой 5">
    <g>
      <circle class="cls-1" cx="165.49" cy="22.28" r="20.96"/>
      <path class="cls-2" d="M165.49,44.41a22.13,22.13,0,1,1,22.14-22.13A22.16,22.16,0,0,1,165.49,44.41Zm0-41.91a19.78,19.78,0,1,0,19.78,19.78A19.8,19.8,0,0,0,165.49,2.5Z"/>
    </g>
    <path class="cls-2" d="M156.21,26.63v-1.4a2.66,2.66,0,0,1,.72-1.83l7.75-8.8a2.36,2.36,0,0,1,1.83-.72h3.66a1.13,1.13,0,0,1,.81.32,1.09,1.09,0,0,1,.33.79v9.42h1.29a1.1,1.1,0,0,1,.81.33,1.07,1.07,0,0,1,.33.79v1.1a1.08,1.08,0,0,1-.34.78,1.16,1.16,0,0,1-.8.32h-1.29v1.85a1,1,0,0,1-.34.78,1.14,1.14,0,0,1-.8.32H168a1,1,0,0,1-.77-.31,1,1,0,0,1-.33-.77V27.73h-9.55a1.12,1.12,0,0,1-.79-.32A1,1,0,0,1,156.21,26.63Zm4.71-2.22h6V17.63Z"/>
  </g>
</svg>
